<svg width="24" height="24" viewBox="0 0 24 24" fill="none" xmlns="http://www.w3.org/2000/svg">
<path d="M8.57143 3.33333H6.28571C5.02335 3.33333 4 4.378 4 5.66667V19.6667C4 20.9553 5.02335 22 6.28571 22H17.7143C18.9767 22 20 20.9553 20 19.6667V5.66667C20 4.378 18.9767 3.33333 17.7143 3.33333H15.4286M8.57143 3.33333C8.57143 4.622 9.59478 5.66667 10.8571 5.66667H13.1429C14.4052 5.66667 15.4286 4.622 15.4286 3.33333M8.57143 3.33333C8.57143 2.04467 9.59478 1 10.8571 1H13.1429C14.4052 1 15.4286 2.04467 15.4286 3.33333M12 11.5H15.4286M12 16.1667H15.4286M8.57143 11.5H8.58286M8.57143 16.1667H8.58286" stroke="#144367" stroke-width="1.5" stroke-linecap="round"/>
</svg>
